<svg width="402" height="402" viewBox="0 0 402 402" fill="current" xmlns="http://www.w3.org/2000/svg">
<rect width="402" height="402" rx="201" fill="current"/>
<path d="M154.076 94C157.589 94.4821 158.736 95.8591 160.929 98.4912L161.04 98.624C162.422 101.387 162.29 104.79 162.165 108.008C162.128 108.947 162.092 109.869 162.095 110.756C162.103 112.481 162.13 114.205 162.156 115.929L162.17 119.236L162.194 122.267C161.858 125.281 161.159 126.834 159.339 129.238C158.035 130.107 157.397 130.532 156.695 130.74C156.024 130.939 155.293 130.939 153.863 130.939C152.296 130.499 151.539 130.287 150.916 129.873C150.334 129.488 149.869 128.927 148.969 127.843C147.259 124.667 147.003 122.82 147.009 119.243L147.007 115.979L147.059 112.602L147.041 109.216C147.099 100.44 147.121 97.1124 148.79 95.5922C149.809 94.6636 151.444 94.4094 154.076 94Z" fill="#ffffff"/>
<path d="M136.374 256.797H154.236V274.655L145.783 274.708L143.115 274.732L141.029 274.738L138.882 274.752C137.935 274.696 137.529 274.673 137.197 274.504C136.947 274.378 136.738 274.169 136.374 273.805C136.3 272.539 136.283 271.269 136.291 270.001L136.297 267.915L136.321 265.248L136.374 256.797Z" fill="#ffffff"/>
<path d="M227.384 256.797H210.373V274.655H227.384V256.797Z" fill="#ffffff"/>
<path d="M173.799 256.797H190.81V273.805H173.799V256.797Z" fill="#ffffff"/>
<path d="M265.659 220.23H248.648V237.238H265.659V220.23Z" fill="#ffffff"/>
<path d="M210.373 220.23H227.384V237.238H210.373V220.23Z" fill="#ffffff"/>
<path d="M190.81 220.23H173.799V237.238H190.81V220.23Z" fill="#ffffff"/>
<path d="M137.224 220.23H154.236V237.238H137.224V220.23Z" fill="#ffffff"/>
<path d="M265.659 183.663H248.648V200.671H265.659V183.663Z" fill="#ffffff"/>
<path d="M210.373 183.663H227.384V200.671H210.373V183.663Z" fill="#ffffff"/>
<path d="M190.81 183.663H173.799V200.671H190.81V183.663Z" fill="#ffffff"/>
<path fill-rule="evenodd" clip-rule="evenodd" d="M168.695 113.081H234.189L235.039 126.687C236.436 129.602 237.108 131.005 238.125 132.083C239.067 133.082 240.306 133.803 242.694 135.191C246.889 135.739 250.645 135.747 254.602 134.181C259.407 129.827 259.784 124.986 260.184 118.821L260.4 115.565L260.556 113.081C269.633 112.627 277.908 114.312 285.222 119.884L286.811 121.053C294.641 127.235 298.304 136.552 299.682 146.246C299.759 148.051 299.797 149.859 299.801 151.666L299.816 154.916L299.819 158.451L299.832 162.199C299.843 165.585 299.848 168.971 299.852 172.357C299.855 174.476 299.858 176.596 299.862 178.715C299.874 185.358 299.882 192.001 299.885 198.644C299.889 206.29 299.904 213.936 299.929 221.583C299.947 227.507 299.955 233.432 299.957 239.356C299.958 242.888 299.962 246.42 299.978 249.951C299.992 253.278 299.994 256.605 299.986 259.931C299.985 261.145 299.989 262.358 299.998 263.572C300.079 275.906 298.11 288.448 289.399 297.848C278.758 307.464 268.176 309.067 254.143 308.987C252.847 308.989 251.55 308.993 250.254 308.997C246.764 309.005 243.274 308.997 239.784 308.985C236.58 308.977 233.376 308.979 230.173 308.98L228.781 308.981C222.628 308.982 216.474 308.972 210.321 308.957C203.221 308.939 196.122 308.936 189.022 308.941C182.169 308.946 175.316 308.941 168.463 308.931C165.556 308.928 162.65 308.927 159.743 308.929C156.319 308.93 152.894 308.923 149.47 308.91C148.218 308.906 146.966 308.905 145.715 308.908C132.214 308.93 121.953 306.73 111.93 297.197C102.892 287.178 101.961 274.425 102.021 261.513C102.017 260.235 102.013 258.957 102.007 257.679C101.996 254.242 102 250.806 102.008 247.37C102.014 244.266 102.01 241.163 102.007 238.059L102.005 236.527C102 230.463 102.006 224.4 102.018 218.336C102.032 211.344 102.028 204.351 102.014 197.359C102.002 191.332 102.001 185.305 102.007 179.278C102.011 175.688 102.012 172.099 102.003 168.509C101.996 165.136 102.001 161.762 102.016 158.389C102.019 157.157 102.018 155.925 102.013 154.693C101.957 141.48 104.991 131.475 114.04 121.654C120.083 116.083 125.865 113.786 133.981 113.878L135.914 113.89C137.485 113.9 139.055 113.915 140.627 113.931L140.693 116.11C141.075 123.753 142.062 128.57 147.112 134.34C150.999 136.643 154.075 136.706 158.488 136.041C162.422 134.502 164.112 132.029 166.143 128.388C167.793 123.962 168.096 120.268 168.472 115.693L168.474 115.68L168.474 115.674L168.482 115.574C168.548 114.773 168.617 113.945 168.695 113.081ZM117.661 164.104C116.934 176.929 116.934 176.929 116.66 189.744L116.643 192.52C116.627 195.484 116.617 198.448 116.608 201.412L116.598 204.518C116.58 209.927 116.568 215.336 116.56 220.745C116.55 226.305 116.521 231.865 116.487 237.425C116.465 241.732 116.458 246.038 116.455 250.345C116.451 252.395 116.441 254.445 116.425 256.495C116.404 259.361 116.405 262.227 116.411 265.093L116.378 267.617C116.429 274.484 117.951 281.322 122.127 286.933C127.653 292.082 133.518 293.458 140.944 293.495L144.261 293.517C145.468 293.521 146.675 293.524 147.882 293.528C149.158 293.534 150.434 293.541 151.71 293.549C155.894 293.571 160.078 293.584 164.263 293.596L168.595 293.61C174.604 293.628 180.614 293.644 186.623 293.654C195.217 293.668 203.811 293.696 212.405 293.744C218.457 293.777 224.51 293.794 230.563 293.798C234.173 293.801 237.783 293.812 241.392 293.839C244.793 293.865 248.192 293.87 251.592 293.86C252.834 293.86 254.075 293.867 255.317 293.882C264.263 293.984 271.22 292.769 278.365 287.145C284.707 278.882 285.48 270.111 285.429 259.959L285.434 256.873C285.436 254.102 285.432 251.332 285.423 248.562C285.416 245.985 285.417 243.409 285.417 240.833L285.417 239.844C285.416 234.973 285.409 230.101 285.397 225.23C285.384 219.596 285.38 213.962 285.38 208.328C285.381 202.323 285.375 196.317 285.367 190.311C285.365 188.582 285.365 186.852 285.364 185.122C285.362 181.907 285.355 178.693 285.346 175.478L285.347 172.569L285.336 169.929L285.332 167.626C285.336 166.706 285.337 166.239 285.222 165.804C285.104 165.357 284.862 164.943 284.372 164.104H117.661Z" fill="#ffffff"/>
<path d="M254.602 100.325C253.331 97.7823 251.641 96.222 249.499 94.372C246.271 93.8342 245.476 94.2187 242.694 96.0728C241.677 97.4274 241.019 98.3036 240.59 99.2804C239.806 101.069 239.792 103.196 239.752 109.216L239.77 112.602L239.719 115.979L239.721 119.243C239.715 122.82 239.971 124.667 241.681 127.843C242.58 128.927 243.046 129.488 243.628 129.873C244.251 130.287 245.007 130.499 246.575 130.939C248.005 130.939 248.735 130.939 249.407 130.74C250.109 130.532 250.747 130.107 252.05 129.238C253.87 126.834 254.569 125.281 254.905 122.267L254.881 119.236L254.868 115.929C254.841 114.205 254.815 112.481 254.806 110.756L254.804 110.036V110.031C254.796 106.793 254.788 103.558 254.602 100.325Z" fill="#ffffff"/>
</svg>
