<svg width="24" height="24" viewBox="0 0 24 24" fill="current" xmlns="http://www.w3.org/2000/svg">
<path fill-rule="evenodd" clip-rule="evenodd" d="M4 2C2.89543 2 2 2.89543 2 4V11C2 12.1046 2.89543 13 4 13H9C10.1046 13 11 12.1046 11 11V4C11 2.89543 10.1046 2 9 2H4ZM4 4H9V11H4V4ZM15 2C13.8954 2 13 2.89543 13 4V7C13 8.10457 13.8954 9 15 9H20C21.1046 9 22 8.10457 22 7V4C22 2.89543 21.1046 2 20 2H15ZM15 4H20V7H15V4ZM13 13C13 11.8954 13.8954 11 15 11H20C21.1046 11 22 11.8954 22 13V20C22 21.1046 21.1046 22 20 22H15C13.8954 22 13 21.1046 13 20V13ZM20 13H15V20H20V13ZM4 15C2.89543 15 2 15.8954 2 17V20C2 21.1046 2.89543 22 4 22H9C10.1046 22 11 21.1046 11 20V17C11 15.8954 10.1046 15 9 15H4ZM4 17H9V20H4V17Z" />
</svg>
