<svg width="262" height="262" viewBox="0 0 262 262" fill="none" xmlns="http://www.w3.org/2000/svg">
<path d="M74.2734 52.1211C75.2493 52.0811 76.2251 52.0412 77.2305 52C86.1344 53.5396 92.3722 61.07 98.4297 67.2344C99.3506 68.1595 100.272 69.0847 101.22 70.0379C103.647 72.4758 106.064 74.9226 108.48 77.3715C110.955 79.8775 113.439 82.3749 115.922 84.873C120.777 89.7599 125.622 94.6561 130.461 99.5586C135.952 94.9972 140.971 90.1236 145.957 85.0195C147.584 83.3707 149.211 81.7222 150.838 80.0742C153.375 77.5004 155.908 74.9236 158.434 72.3389C160.891 69.8273 163.36 67.3289 165.832 64.832C166.578 64.0622 167.324 63.2923 168.093 62.4991C173.106 57.4613 177.947 53.3919 185.148 52.0625C191.739 52.2295 197.447 52.7589 202.441 57.3984C207.322 62.802 209.747 66.5051 209.773 73.9336C209.79 75.0345 209.807 76.1353 209.824 77.2695C209.171 83.1862 206.344 87.0563 202.157 91.1235C201.293 91.9711 200.429 92.8186 199.539 93.6918C198.611 94.5889 197.683 95.4859 196.727 96.4102C195.763 97.355 194.801 98.301 193.84 99.2479C189.772 103.252 185.686 107.237 181.592 111.215C179.082 113.656 176.584 116.108 174.093 118.569C172.68 119.957 171.254 121.33 169.827 122.703C168.975 123.545 168.124 124.386 167.247 125.252C166.49 125.989 165.733 126.726 164.953 127.486C163.262 129.404 163.262 129.404 163.479 131.564C164.748 134.142 166.327 135.762 168.382 137.773C169.213 138.594 170.045 139.415 170.901 140.261C171.805 141.141 172.709 142.02 173.641 142.926C175.052 144.32 176.463 145.714 177.874 147.108C180.856 150.051 183.851 152.979 186.844 155.91C189.304 158.321 191.761 160.734 194.211 163.155C196.048 164.97 197.892 166.778 199.743 168.578C200.581 169.405 201.418 170.233 202.281 171.085C203.017 171.806 203.754 172.527 204.512 173.27C209.371 178.977 210.057 184.098 209.875 191.363C209.083 197.478 205.977 201.368 201.523 205.434C195.692 209.48 189.467 210.73 182.461 209.559C174.835 206.503 169.962 201.581 164.273 195.762C163.322 194.802 162.369 193.844 161.416 192.887C158.928 190.383 156.452 187.869 153.978 185.351C151.445 182.776 148.9 180.213 146.355 177.648C141.379 172.63 136.416 167.598 131.461 162.559C125.876 167.193 120.782 172.164 115.711 177.352C114.034 179.051 112.357 180.749 110.68 182.447C108.062 185.102 105.447 187.761 102.84 190.427C100.306 193.015 97.7596 195.59 95.2109 198.164C94.4378 198.961 93.6647 199.758 92.8682 200.579C87.8688 205.602 83.8259 208.885 76.6523 209.992C69.392 210.003 64.1431 208.946 58.707 203.945C53.4547 198.237 52.2759 192.916 52 185.316C53.523 176.204 59.9374 170.55 66.2578 164.371C67.217 163.419 68.1754 162.467 69.1329 161.513C71.6361 159.025 74.151 156.549 76.6688 154.076C79.2435 151.543 81.8068 148.997 84.3711 146.453C89.3899 141.477 94.4213 136.514 99.4609 131.559C94.832 125.976 89.8615 120.9 84.668 115.844C82.9688 114.172 81.2703 112.499 79.5723 110.826C76.9184 108.216 74.2611 105.609 71.593 103.013C69.0022 100.489 66.4278 97.9491 63.8555 95.4062C63.0586 94.6383 62.2617 93.8703 61.4406 93.0791C56.1019 87.7663 53.2479 83.436 52.0273 75.8711C52.0157 69.0036 53.3351 63.8919 58.1094 58.8008C63.0631 54.323 67.5074 52.2718 74.2734 52.1211Z" fill="#ffffff"/>
</svg>
