<svg width="24" height="24" viewBox="0 0 24 24" fill="none" xmlns="http://www.w3.org/2000/svg">
<path d="M21.6604 8.75096L12.6605 16.7509C12.478 16.9113 12.2434 16.9997 12.0005 16.9997C11.7575 16.9997 11.5229 16.9113 11.3405 16.7509L2.34045 8.75096C2.15462 8.57247 2.04486 8.32913 2.03405 8.07169C2.02325 7.81424 2.11224 7.56257 2.28246 7.36913C2.45268 7.1757 2.69101 7.05543 2.94773 7.03342C3.20446 7.0114 3.45978 7.08933 3.66045 7.25096L12.0005 14.661L20.3405 7.25096C20.4378 7.15745 20.5531 7.08462 20.6793 7.03686C20.8056 6.98909 20.9402 6.96739 21.0751 6.97305C21.21 6.97871 21.3423 7.01162 21.4641 7.06979C21.5859 7.12796 21.6947 7.2102 21.7839 7.31154C21.8731 7.41288 21.9408 7.53123 21.983 7.65945C22.0252 7.78767 22.041 7.92311 22.0295 8.05761C22.018 8.1921 21.9793 8.32287 21.9159 8.44204C21.8525 8.5612 21.7656 8.66628 21.6604 8.75096Z" fill="#24a186"/>
</svg>
