<svg width="25" height="24" viewBox="0 0 25 24" fill="current" xmlns="http://www.w3.org/2000/svg">
<path d="M18.6589 16.617L22.9419 20.899L21.5269 22.314L17.2449 18.031C15.6517 19.3082 13.6699 20.0029 11.6279 20C6.65993 20 2.62793 15.968 2.62793 11C2.62793 6.032 6.65993 2 11.6279 2C16.5959 2 20.6279 6.032 20.6279 11C20.6308 13.042 19.9362 15.0237 18.6589 16.617ZM16.6529 15.875C17.922 14.5699 18.6308 12.8204 18.6279 11C18.6279 7.133 15.4949 4 11.6279 4C7.76093 4 4.62793 7.133 4.62793 11C4.62793 14.867 7.76093 18 11.6279 18C13.4484 18.0029 15.1978 17.2941 16.5029 16.025L16.6529 15.875Z" />
</svg>
