<svg width="43" height="44" viewBox="0 0 43 44" fill="current" xmlns="http://www.w3.org/2000/svg">
<path d="M12.47 0.73999H30.53C37.41 0.73999 43 6.32999 43 13.21V31.27C43 34.5772 41.6862 37.749 39.3476 40.0876C37.009 42.4262 33.8373 43.74 30.53 43.74H12.47C5.59 43.74 0 38.15 0 31.27V13.21C0 9.90274 1.3138 6.73095 3.65238 4.39237C5.99096 2.05379 9.16275 0.73999 12.47 0.73999ZM12.04 5.03999C9.98722 5.03999 8.01853 5.85545 6.56699 7.30698C5.11546 8.75852 4.3 10.7272 4.3 12.78V31.7C4.3 35.9785 7.7615 39.44 12.04 39.44H30.96C33.0128 39.44 34.9815 38.6245 36.433 37.173C37.8845 35.7215 38.7 33.7528 38.7 31.7V12.78C38.7 8.50149 35.2385 5.03999 30.96 5.03999H12.04ZM32.7875 8.26499C33.5003 8.26499 34.1838 8.54814 34.6879 9.05214C35.1919 9.55614 35.475 10.2397 35.475 10.9525C35.475 11.6653 35.1919 12.3488 34.6879 12.8528C34.1838 13.3568 33.5003 13.64 32.7875 13.64C32.0747 13.64 31.3912 13.3568 30.8871 12.8528C30.3831 12.3488 30.1 11.6653 30.1 10.9525C30.1 10.2397 30.3831 9.55614 30.8871 9.05214C31.3912 8.54814 32.0747 8.26499 32.7875 8.26499ZM21.5 11.49C24.3511 11.49 27.0854 12.6226 29.1014 14.6386C31.1174 16.6546 32.25 19.3889 32.25 22.24C32.25 25.0911 31.1174 27.8254 29.1014 29.8414C27.0854 31.8574 24.3511 32.99 21.5 32.99C18.6489 32.99 15.9146 31.8574 13.8986 29.8414C11.8826 27.8254 10.75 25.0911 10.75 22.24C10.75 19.3889 11.8826 16.6546 13.8986 14.6386C15.9146 12.6226 18.6489 11.49 21.5 11.49ZM21.5 15.79C19.7894 15.79 18.1488 16.4695 16.9392 17.6792C15.7296 18.8888 15.05 20.5293 15.05 22.24C15.05 23.9506 15.7296 25.5912 16.9392 26.8008C18.1488 28.0104 19.7894 28.69 21.5 28.69C23.2106 28.69 24.8512 28.0104 26.0608 26.8008C27.2705 25.5912 27.95 23.9506 27.95 22.24C27.95 20.5293 27.2705 18.8888 26.0608 17.6792C24.8512 16.4695 23.2106 15.79 21.5 15.79Z" />
</svg>
