<svg width="24" height="24" viewBox="0 0 24 24" fill="current" xmlns="http://www.w3.org/2000/svg">
<path d="M20 4C20.5304 4 21.0391 4.21071 21.4142 4.58579C21.7893 4.96086 22 5.46957 22 6V16C22 17.11 21.11 18 20 18H24V20H0V18H4C3.46957 18 2.96086 17.7893 2.58579 17.4142C2.21071 17.0391 2 16.5304 2 16V6C2 4.89 2.89 4 4 4H20ZM20 6H4V16H20V6ZM12 12C14.21 12 16 12.9 16 14V15H8V14C8 12.9 9.79 12 12 12ZM12 7C12.5304 7 13.0391 7.21071 13.4142 7.58579C13.7893 7.96086 14 8.46957 14 9C14 9.53043 13.7893 10.0391 13.4142 10.4142C13.0391 10.7893 12.5304 11 12 11C10.89 11 10 10.11 10 9C10 7.89 10.9 7 12 7Z" />
</svg>
