<svg width="800" height="238" viewBox="0 0 800 238" fill="none" xmlns="http://www.w3.org/2000/svg">
<path d="M770.37 237.518H29.6296C13.037 237.518 0 224.481 0 207.889V30.1111C0 13.5185 13.037 0.481445 29.6296 0.481445H770.37C786.963 0.481445 800 13.5185 800 30.1111V207.889C800 224.481 786.963 237.518 770.37 237.518Z" fill="black"/>
<path d="M770.37 5.22219C784 5.22219 795.259 16.4814 795.259 30.1111V207.889C795.259 221.518 784 232.778 770.37 232.778H29.6296C16 232.778 4.74074 221.518 4.74074 207.889V30.1111C4.74074 16.4814 16 5.22219 29.6296 5.22219H770.37ZM770.37 0.481445H29.6296C13.037 0.481445 0 14.1111 0 30.1111V207.889C0 224.481 13.037 237.518 29.6296 237.518H770.37C786.963 237.518 800 224.481 800 207.889V30.1111C800 14.1111 786.963 0.481445 770.37 0.481445Z" fill="#A6A6A6"/>
<path d="M280.889 60.9257C280.889 65.6664 279.703 69.8146 276.74 72.7775C273.185 76.3331 269.037 78.1109 263.703 78.1109C258.37 78.1109 254.222 76.3331 250.666 72.7775C247.111 69.222 245.333 65.0738 245.333 59.7405C245.333 54.4072 247.111 50.259 250.666 46.7035C254.222 43.1479 258.37 41.3701 263.703 41.3701C266.074 41.3701 268.444 41.9627 270.814 43.1479C273.185 44.3331 274.963 45.5183 276.148 47.296L273.185 50.259C270.814 47.296 267.852 46.1109 263.703 46.1109C260.148 46.1109 256.592 47.296 254.222 50.259C251.259 52.6294 250.074 56.1849 250.074 60.3331C250.074 64.4812 251.259 68.0368 254.222 70.4072C257.185 72.7775 260.148 74.5553 263.703 74.5553C267.852 74.5553 270.814 73.3701 273.777 70.4072C275.555 68.6294 276.74 66.259 276.74 63.296H263.703V58.5553H280.889V60.9257ZM308.148 46.1109H292.148V57.3701H306.963V61.5183H292.148V72.7775H308.148V77.5183H287.407V41.9627H308.148V46.1109ZM327.703 77.5183H322.963V46.1109H312.889V41.9627H337.777V46.1109H327.703V77.5183ZM354.963 77.5183V41.9627H359.703V77.5183H354.963ZM379.852 77.5183H375.111V46.1109H365.037V41.9627H389.333V46.1109H379.259V77.5183H379.852ZM436.148 72.7775C432.592 76.3331 428.444 78.1109 423.111 78.1109C417.777 78.1109 413.629 76.3331 410.074 72.7775C406.518 69.222 404.74 65.0738 404.74 59.7405C404.74 54.4072 406.518 50.259 410.074 46.7035C413.629 43.1479 417.777 41.3701 423.111 41.3701C428.444 41.3701 432.592 43.1479 436.148 46.7035C439.703 50.259 441.481 54.4072 441.481 59.7405C441.481 65.0738 439.703 69.222 436.148 72.7775ZM413.629 69.8146C416 72.1849 419.555 73.9627 423.111 73.9627C426.666 73.9627 430.222 72.7775 432.592 69.8146C434.963 67.4442 436.74 63.8886 436.74 59.7405C436.74 55.5923 435.555 52.0368 432.592 49.6664C430.222 47.296 426.666 45.5183 423.111 45.5183C419.555 45.5183 416 46.7035 413.629 49.6664C411.259 52.0368 409.481 55.5923 409.481 59.7405C409.481 63.8886 410.666 67.4442 413.629 69.8146ZM448 77.5183V41.9627H453.333L470.518 69.8146V41.9627H475.259V77.5183H470.518L452.148 48.4812V77.5183H448Z" fill="white" stroke="white" stroke-width="1.18519" stroke-miterlimit="10"/>
<path d="M403.556 129.666C389.333 129.666 378.074 140.333 378.074 155.148C378.074 169.37 389.333 180.629 403.556 180.629C417.778 180.629 429.037 169.963 429.037 155.148C429.037 139.74 417.778 129.666 403.556 129.666ZM403.556 169.963C395.852 169.963 389.333 163.444 389.333 154.555C389.333 145.666 395.852 139.148 403.556 139.148C411.259 139.148 417.778 145.074 417.778 154.555C417.778 163.444 411.259 169.963 403.556 169.963ZM348.445 129.666C334.222 129.666 322.963 140.333 322.963 155.148C322.963 169.37 334.222 180.629 348.445 180.629C362.667 180.629 373.926 169.963 373.926 155.148C373.926 139.74 362.667 129.666 348.445 129.666ZM348.445 169.963C340.741 169.963 334.222 163.444 334.222 154.555C334.222 145.666 340.741 139.148 348.445 139.148C356.148 139.148 362.667 145.074 362.667 154.555C362.667 163.444 356.148 169.963 348.445 169.963ZM282.667 137.37V148.037H308.148C307.556 153.963 305.185 158.703 302.222 161.666C298.667 165.222 292.741 169.37 282.667 169.37C266.667 169.37 254.815 156.926 254.815 140.926C254.815 124.926 267.259 112.481 282.667 112.481C290.963 112.481 297.482 116.037 302.222 120.185L309.926 112.481C303.408 106.555 295.111 101.814 283.259 101.814C261.926 101.814 243.556 119.592 243.556 140.926C243.556 162.259 261.926 180.037 283.259 180.037C295.111 180.037 303.408 176.481 310.519 168.777C317.63 161.666 320 151.592 320 143.889C320 141.518 320 139.148 319.408 137.37H282.667ZM551.704 145.666C549.333 139.74 543.408 129.666 530.37 129.666C517.333 129.666 506.667 139.74 506.667 155.148C506.667 169.37 517.333 180.629 531.556 180.629C542.815 180.629 549.926 173.518 552.296 169.37L544 163.444C541.037 167.592 537.482 170.555 531.556 170.555C525.63 170.555 522.074 168.185 519.111 162.851L552.889 148.629L551.704 145.666ZM517.333 153.963C517.333 144.481 525.037 139.148 530.37 139.148C534.519 139.148 538.667 141.518 539.852 144.481L517.333 153.963ZM489.482 178.259H500.741V104.185H489.482V178.259ZM471.704 135C468.741 132.037 464 129.074 458.074 129.074C445.63 129.074 433.778 140.333 433.778 154.555C433.778 168.777 445.037 179.444 458.074 179.444C464 179.444 468.741 176.481 471.111 173.518H471.704V177.074C471.704 186.555 466.37 191.889 458.074 191.889C451.556 191.889 446.815 187.148 445.63 183L436.148 187.148C439.111 193.666 446.222 201.963 458.667 201.963C471.704 201.963 482.37 194.259 482.37 175.889V130.851H471.704V135ZM458.667 169.963C450.963 169.963 444.445 163.444 444.445 154.555C444.445 145.666 450.963 139.148 458.667 139.148C466.37 139.148 472.296 145.666 472.296 154.555C472.296 163.444 466.37 169.963 458.667 169.963ZM603.259 104.185H576.593V178.259H587.852V150.407H603.259C615.704 150.407 627.556 141.518 627.556 127.296C627.556 113.074 615.704 104.185 603.259 104.185ZM603.852 139.74H587.852V114.259H603.852C612.148 114.259 616.889 121.37 616.889 126.703C616.296 133.222 611.556 139.74 603.852 139.74ZM672 129.074C663.704 129.074 655.408 132.629 652.445 140.333L662.519 144.481C664.889 140.333 668.445 139.148 672.593 139.148C678.519 139.148 683.852 142.703 684.445 148.629V149.222C682.667 148.037 677.926 146.259 673.185 146.259C662.519 146.259 651.852 152.185 651.852 162.851C651.852 172.926 660.741 179.444 670.222 179.444C677.926 179.444 681.482 175.889 684.445 172.333H685.037V178.259H695.704V149.814C694.519 136.777 684.445 129.074 672 129.074ZM670.815 169.963C667.259 169.963 661.926 168.185 661.926 163.444C661.926 157.518 668.445 155.74 673.778 155.74C678.519 155.74 680.889 156.926 683.852 158.111C682.667 165.222 676.741 169.963 670.815 169.963ZM733.037 130.851L720.593 162.851H720L706.963 130.851H695.111L714.667 175.889L703.407 200.777H714.667L744.889 130.851H733.037ZM633.482 178.259H644.741V104.185H633.482V178.259Z" fill="white"/>
<path d="M61.6292 44.9258C59.8514 46.7036 59.2588 49.6665 59.2588 53.2221V184.185C59.2588 187.741 60.444 190.704 62.2218 192.481L62.8143 193.074L136.296 119.592V118.407L61.6292 44.9258Z" fill="url(#paint0_linear_36_4357)"/>
<path d="M159.999 144.482L135.703 120.185V118.408L159.999 94.1113L160.592 94.7039L189.629 111.297C197.925 116.037 197.925 123.741 189.629 128.482L159.999 144.482Z" fill="url(#paint1_linear_36_4357)"/>
<path d="M160.592 143.889L135.703 119L61.6289 193.074C64.5919 196.037 68.74 196.037 74.0734 193.667L160.592 143.889Z" fill="url(#paint2_linear_36_4357)"/>
<path d="M160.592 94.1107L74.0734 44.9255C68.74 41.9626 64.5919 42.5552 61.6289 45.5181L135.703 119L160.592 94.1107Z" fill="url(#paint3_linear_36_4357)"/>
<path opacity="0.2" d="M159.999 143.296L74.0734 191.888C69.3326 194.851 65.1845 194.259 62.2215 191.888L61.6289 192.481L62.2215 193.074C65.1845 195.444 69.3326 196.037 74.0734 193.074L159.999 143.296Z" fill="black"/>
<path opacity="0.12" d="M61.6292 191.889C59.8514 190.111 59.2588 187.148 59.2588 183.593V184.185C59.2588 187.741 60.444 190.704 62.2218 192.481V191.889H61.6292ZM189.629 126.704L160 143.296L160.592 143.889L189.629 127.296C193.777 124.926 195.555 121.963 195.555 119C195.555 121.963 193.185 124.333 189.629 126.704Z" fill="black"/>
<path opacity="0.25" d="M74.0736 45.5183L189.629 111.296C193.185 113.666 195.555 116.037 195.555 119C195.555 116.037 193.777 113.074 189.629 110.703L74.0736 44.9257C65.7773 40.1849 59.2588 43.7405 59.2588 53.222V53.8146C59.2588 44.9257 65.7773 40.7775 74.0736 45.5183Z" fill="white"/>
<defs>
<linearGradient id="paint0_linear_36_4357" x1="129.185" y1="52.0962" x2="29.7299" y2="151.545" gradientUnits="userSpaceOnUse">
<stop stop-color="#00A0FF"/>
<stop offset="0.007" stop-color="#00A1FF"/>
<stop offset="0.26" stop-color="#00BEFF"/>
<stop offset="0.512" stop-color="#00D2FF"/>
<stop offset="0.76" stop-color="#00DFFF"/>
<stop offset="1" stop-color="#00E3FF"/>
</linearGradient>
<linearGradient id="paint1_linear_36_4357" x1="200.497" y1="119.006" x2="57.1076" y2="119.006" gradientUnits="userSpaceOnUse">
<stop stop-color="#FFE000"/>
<stop offset="0.409" stop-color="#FFBD00"/>
<stop offset="0.775" stop-color="#FFA500"/>
<stop offset="1" stop-color="#FF9C00"/>
</linearGradient>
<linearGradient id="paint2_linear_36_4357" x1="147.122" y1="132.606" x2="12.26" y2="267.468" gradientUnits="userSpaceOnUse">
<stop stop-color="#FF3A44"/>
<stop offset="1" stop-color="#C31162"/>
</linearGradient>
<linearGradient id="paint3_linear_36_4357" x1="43.2408" y1="1.52406" x2="103.466" y2="61.7493" gradientUnits="userSpaceOnUse">
<stop stop-color="#32A071"/>
<stop offset="0.069" stop-color="#2DA771"/>
<stop offset="0.476" stop-color="#15CF74"/>
<stop offset="0.801" stop-color="#06E775"/>
<stop offset="1" stop-color="#00F076"/>
</linearGradient>
</defs>
</svg>
