<svg width="800" height="800" viewBox="0 0 800 800" fill="current" xmlns="http://www.w3.org/2000/svg">
<path d="M412 66C450.28 66 488.56 66 528 66C528.33 72.6 528.66 79.2 529 86C531.226 101.936 535.158 117.396 542 132C542.294 132.643 542.588 133.286 542.891 133.948C548.873 146.901 556.257 158.95 565.876 169.535C567 171 567 171 567 173C567.66 173 568.32 173 569 173C570.234 174.328 570.234 174.328 571.75 176.25C595.405 203.913 634.181 221.315 670.005 224.159C673.276 224.39 676.545 224.584 679.82 224.754C683 225 683 225 687 226C687 263.95 687 301.9 687 341C675.432 341 664.87 340.833 653.562 339.25C652.897 339.16 652.232 339.069 651.546 338.977C640.577 337.489 629.733 335.727 619 333C617.761 332.687 617.761 332.687 616.498 332.368C586.958 324.755 558.65 311.79 533.295 294.867C532.489 294.329 531.684 293.791 530.853 293.238C530.242 292.829 529.63 292.421 529 292C528.997 293.205 528.993 294.411 528.99 295.653C528.911 324.363 528.821 353.074 528.72 381.785C528.707 385.33 528.695 388.876 528.683 392.421C528.68 393.127 528.678 393.833 528.675 394.56C528.636 405.938 528.603 417.317 528.573 428.695C528.541 440.399 528.503 452.102 528.457 463.806C528.432 470.368 528.41 476.93 528.397 483.492C528.384 489.686 528.361 495.881 528.333 502.075C528.324 504.331 528.318 506.587 528.316 508.843C528.292 530.618 526.903 551.747 522 573C521.737 574.221 521.474 575.441 521.203 576.699C515.546 600.53 504.299 624.145 490 644C489.316 644.969 488.631 645.939 487.926 646.938C482.181 654.859 475.77 661.962 469 669C468.479 669.548 467.958 670.097 467.421 670.662C429.92 709.999 376.69 732.33 322.582 734.285C299.079 734.781 276.545 731.573 254 725C252.865 724.67 252.865 724.67 251.708 724.333C227.248 716.98 203.733 704.14 184 688C183.451 687.554 182.901 687.107 182.335 686.647C174.803 680.498 167.696 674.067 161 667C160.422 666.393 159.845 665.786 159.25 665.16C145.125 649.643 133.8 631.659 124.834 612.754C124.106 611.224 123.358 609.703 122.605 608.184C104.734 571.022 99.5975 524.276 108 484C108.199 483.023 108.397 482.046 108.602 481.04C112.964 460.097 119.961 440.86 130 422C130.513 421.007 131.026 420.015 131.555 418.992C148.626 386.603 175.746 359.998 206.926 341.252C208.403 340.36 209.873 339.456 211.338 338.543C242.797 319.142 281.053 310.982 317.688 310.75C318.672 310.741 319.657 310.731 320.671 310.722C329.362 310.759 337.194 311.899 346 313C346 351.94 346 390.88 346 431C339.07 429.515 339.07 429.515 332 428C305.283 424.183 279.996 430.385 258.035 446.125C238.116 461.77 225.772 483.543 221.41 508.355C218.588 533.431 223.958 558.493 239 579C242.712 583.62 246.79 587.836 251 592C251.665 592.675 252.33 593.351 253.016 594.047C270.854 610.955 296.042 617.533 320.008 617.215C346.897 616.384 370.098 603.7 388.312 584.625C406.725 563.557 411.644 538.047 411.519 510.942C411.525 509.006 411.533 507.071 411.542 505.136C411.562 499.879 411.557 494.623 411.549 489.366C411.544 483.675 411.562 477.983 411.577 472.291C411.6 462.451 411.609 452.61 411.608 442.769C411.606 428.542 411.627 414.314 411.652 400.086C411.693 376.998 411.717 353.91 411.729 330.822C411.741 308.405 411.761 285.988 411.792 263.571C411.793 262.879 411.794 262.187 411.795 261.474C411.805 254.523 411.815 247.572 411.825 240.621C411.909 182.414 411.961 124.207 412 66Z" />
</svg>
