<svg width="81" height="81" viewBox="0 0 81 81" xmlns="http://www.w3.org/2000/svg">
<rect width="81" height="81" rx="17" fill="current"/>
<path d="M38.0846 38.6294C37.0261 39.6626 37.0261 41.3374 38.0846 42.3698C39.1422 43.4031 40.8586 43.4031 41.9163 42.3698C42.9747 41.3365 42.9747 39.6618 41.9163 38.6294C40.8578 37.5969 39.1422 37.5969 38.0846 38.6294ZM40 20C28.4017 20 19 29.1779 19 40.5C19 51.8221 28.4017 61 40 61C51.5983 61 61 51.8221 61 40.5C61 29.1779 51.5983 20 40 20ZM50.6812 32.238L45.095 44.1702C44.8248 44.7472 44.3508 45.21 43.7597 45.4737L31.5373 50.9269C30.1275 51.556 28.6744 50.1375 29.3188 48.7612L34.9058 36.829C35.176 36.252 35.65 35.7892 36.2412 35.5254L48.4635 30.0723C49.8734 29.4441 51.3256 30.8617 50.6812 32.238Z" fill="white"/>
</svg>
