<svg width="262" height="262" viewBox="0 0 262 262" fill="none" xmlns="http://www.w3.org/2000/svg">
<path d="M222.875 53.7551C229.539 57.4867 232.983 61.294 235.75 68.4426C236.517 74.7675 236.433 79.9676 233 85.5051C227.595 92.3944 221.187 98.467 215.003 104.647C213.907 105.747 212.811 106.846 211.714 107.946C208.758 110.911 205.799 113.873 202.839 116.834C200.987 118.686 199.137 120.539 197.286 122.392C190.825 128.862 184.361 135.33 177.895 141.795C171.874 147.816 165.859 153.841 159.847 159.87C154.674 165.055 149.497 170.237 144.317 175.417C141.228 178.506 138.14 181.596 135.057 184.691C132.16 187.597 129.259 190.498 126.354 193.395C125.291 194.458 124.228 195.523 123.168 196.589C121.719 198.046 120.263 199.497 118.806 200.946C117.994 201.759 117.182 202.572 116.345 203.409C111.328 207.894 106.881 209.617 100.25 209.818C99.4508 209.855 98.6516 209.892 97.8281 209.931C90.9055 208.889 85.6923 204.793 80.907 199.93C80.3547 199.384 79.8024 198.839 79.2333 198.277C77.4306 196.492 75.6427 194.693 73.8555 192.892C72.5967 191.636 71.3374 190.38 70.0775 189.125C67.4478 186.502 64.8255 183.871 62.2083 181.235C58.8617 177.865 55.4975 174.514 52.1275 171.168C49.5268 168.582 46.9358 165.987 44.3475 163.388C43.1109 162.149 41.8714 160.912 40.6288 159.679C38.8913 157.952 37.1673 156.212 35.446 154.469C34.6816 153.716 34.6816 153.716 33.9017 152.949C28.9874 147.917 26.5762 142.665 26.5 135.568C26.6865 128.787 28.8216 124.758 33.4922 119.978C37.998 115.951 42.315 114.217 48.3125 114.13C49.637 114.088 49.637 114.088 50.9883 114.044C59.6337 115.367 65.0291 120.986 70.875 126.99C72.0899 128.213 72.0899 128.213 73.3293 129.461C75.8958 132.05 78.448 134.652 81 137.255C82.7452 139.02 84.4912 140.785 86.2383 142.548C90.5029 146.857 94.7559 151.176 99 155.505C102.271 154.075 104.413 152.327 106.911 149.79C107.665 149.029 108.419 148.269 109.196 147.485C110.402 146.254 110.402 146.254 111.633 144.997C112.466 144.157 113.299 143.316 114.157 142.45C116.818 139.765 119.472 137.073 122.125 134.38C125.622 130.83 129.125 127.287 132.633 123.747C133.441 122.922 134.249 122.097 135.082 121.248C135.83 120.493 136.578 119.739 137.348 118.962C138.007 118.293 138.665 117.624 139.344 116.934C141 115.505 141 115.505 143 115.505C143.66 114.185 144.32 112.865 145 111.505C145.66 111.505 146.32 111.505 147 111.505C147.33 110.515 147.66 109.525 148 108.505C148.66 108.505 149.32 108.505 150 108.505C150.33 107.515 150.66 106.525 151 105.505C151.66 105.505 152.32 105.505 153 105.505C153 104.845 153 104.185 153 103.505C153.66 103.505 154.32 103.505 155 103.505C155.33 102.515 155.66 101.525 156 100.505C157.535 98.9935 157.535 98.9935 159.507 97.3733C164.229 93.3642 168.546 89.033 172.883 84.6145C174.561 82.9189 176.239 81.2236 177.918 79.5286C180.532 76.883 183.145 74.2353 185.751 71.5823C188.288 69.0029 190.835 66.4331 193.383 63.8645C194.158 63.0707 194.933 62.277 195.732 61.4592C203.502 53.6528 211.882 49.3771 222.875 53.7551Z" fill="#ffffff"/>
</svg>
