<svg width="24" height="24" viewBox="0 0 24 24" fill="none" xmlns="http://www.w3.org/2000/svg">
<path fill-rule="evenodd" clip-rule="evenodd" d="M20 5H4C3.44772 5 3 5.44772 3 6V18C3 18.5523 3.44772 19 4 19H20C20.5523 19 21 18.5523 21 18V6C21 5.44772 20.5523 5 20 5ZM4 3C2.34315 3 1 4.34315 1 6V18C1 19.6569 2.34315 21 4 21H20C21.6569 21 23 19.6569 23 18V6C23 4.34315 21.6569 3 20 3H4Z" fill="white"/>
<path fill-rule="evenodd" clip-rule="evenodd" d="M5.23171 7.35984C5.58528 6.93556 6.21584 6.87824 6.64012 7.2318L11.3597 11.1648C11.7306 11.4738 12.2692 11.4738 12.6401 11.1648L17.3597 7.2318C17.784 6.87824 18.4146 6.93556 18.7681 7.35984C19.1217 7.78412 19.0644 8.41468 18.6401 8.76825L13.9204 12.7012C12.8079 13.6284 11.1919 13.6284 10.0793 12.7012L5.35975 8.76825C4.93547 8.41468 4.87815 7.78412 5.23171 7.35984Z" fill="white"/>
</svg>
