<svg width="21" height="20" viewBox="0 0 21 20" fill="current" xmlns="http://www.w3.org/2000/svg">
<path d="M17.2042 2.91003C16.2874 1.98395 15.1953 1.2497 13.9918 0.75008C12.7883 0.250463 11.4973 -0.00451063 10.1942 2.90521e-05C4.73416 2.90521e-05 0.284163 4.45003 0.284163 9.91003C0.284163 11.66 0.744163 13.36 1.60416 14.86L0.204163 20L5.45416 18.62C6.90416 19.41 8.53416 19.83 10.1942 19.83C15.6542 19.83 20.1042 15.38 20.1042 9.92003C20.1042 7.27003 19.0742 4.78003 17.2042 2.91003ZM10.1942 18.15C8.71416 18.15 7.26416 17.75 5.99416 17L5.69416 16.82L2.57416 17.64L3.40416 14.6L3.20416 14.29C2.38191 12.977 1.9453 11.4593 1.94416 9.91003C1.94416 5.37003 5.64416 1.67003 10.1842 1.67003C12.3842 1.67003 14.4542 2.53003 16.0042 4.09003C16.7716 4.85399 17.3799 5.76269 17.7936 6.76345C18.2073 7.76422 18.4182 8.83714 18.4142 9.92003C18.4342 14.46 14.7342 18.15 10.1942 18.15ZM14.7142 11.99C14.4642 11.87 13.2442 11.27 13.0242 11.18C12.7942 11.1 12.6342 11.06 12.4642 11.3C12.2942 11.55 11.8242 12.11 11.6842 12.27C11.5442 12.44 11.3942 12.46 11.1442 12.33C10.8942 12.21 10.0942 11.94 9.15416 11.1C8.41416 10.44 7.92416 9.63003 7.77416 9.38003C7.63416 9.13003 7.75416 9.00003 7.88416 8.87003C7.99416 8.76003 8.13416 8.58003 8.25416 8.44003C8.37416 8.30003 8.42416 8.19003 8.50416 8.03003C8.58416 7.86003 8.54416 7.72003 8.48416 7.60003C8.42416 7.48003 7.92416 6.26003 7.72416 5.76003C7.52416 5.28003 7.31416 5.34003 7.16416 5.33003H6.68416C6.51416 5.33003 6.25416 5.39003 6.02416 5.64003C5.80416 5.89003 5.16416 6.49003 5.16416 7.71003C5.16416 8.93003 6.05416 10.11 6.17416 10.27C6.29416 10.44 7.92416 12.94 10.4042 14.01C10.9942 14.27 11.4542 14.42 11.8142 14.53C12.4042 14.72 12.9442 14.69 13.3742 14.63C13.8542 14.56 14.8442 14.03 15.0442 13.45C15.2542 12.87 15.2542 12.38 15.1842 12.27C15.1142 12.16 14.9642 12.11 14.7142 11.99Z" />
</svg>
